<!DOCTYPE svg PUBLIC "-//W3C//DTD SVG 20010904//EN" "http://www.w3.org/TR/2001/REC-SVG-20010904/DTD/svg10.dtd">
<svg version="1.0" xmlns="http://www.w3.org/2000/svg" width="225px" height="225px" viewBox="0 0 2250 2250" preserveAspectRatio="xMidYMid meet">
<g id="layer101" fill="#502808" stroke="none">
 <path d="M535 1500 c-136 -8 -197 -33 -274 -115 -184 -194 -126 -488 119 -604 l55 -26 705 0 705 0 67 33 c83 40 148 104 185 180 25 51 28 68 28 157 0 83 -4 108 -23 149 -47 103 -137 183 -237 211 -40 11 -170 15 -635 17 -322 2 -634 1 -695 -2z"/>
 </g>
<g id="layer102" fill="#6c4e26" stroke="none">
 <path d="M535 1500 c-136 -8 -197 -33 -274 -115 -184 -194 -126 -488 119 -604 l55 -26 705 0 705 0 67 33 c83 40 148 104 185 180 25 51 28 68 28 157 0 83 -4 108 -23 149 -47 103 -137 183 -237 211 -40 11 -170 15 -635 17 -322 2 -634 1 -695 -2z m185 -63 c0 -2 -40 -35 -89 -75 -53 -43 -98 -72 -112 -72 -13 0 -42 -9 -64 -19 -116 -54 -148 -186 -68 -282 34 -40 79 -59 140 -59 45 -1 53 -5 113 -62 l65 -60 -125 4 c-109 3 -132 7 -181 29 -175 82 -236 284 -136 449 68 113 149 149 335 150 67 0 122 -1 122 -3z m1175 -29 c60 -31 114 -87 146 -148 34 -65 34 -205 1 -268 -35 -66 -88 -119 -150 -149 -52 -25 -69 -28 -186 -32 l-130 -3 70 60 c60 52 75 60 111 60 150 2 232 178 137 292 -32 37 -66 56 -119 65 -57 10 -95 49 -95 97 l0 38 -47 0 c-27 0 -55 5 -63 11 -10 7 29 9 130 7 134 -3 149 -5 195 -30z"/>
 </g>
<g id="layer103" fill="#985821" stroke="none">
 <path d="M535 1500 c-136 -8 -197 -33 -274 -115 -184 -194 -126 -488 119 -604 l55 -26 705 0 705 0 67 33 c83 40 148 104 185 180 25 51 28 68 28 157 0 83 -4 108 -23 149 -47 103 -137 183 -237 211 -40 11 -170 15 -635 17 -322 2 -634 1 -695 -2z m427 -60 c122 0 218 -3 214 -7 -4 -4 -35 -6 -69 -5 l-62 2 -84 -69 c-63 -52 -94 -71 -125 -77 -23 -3 -53 -12 -67 -20 -35 -18 -78 -69 -85 -102 -3 -15 -9 -35 -14 -44 -5 -9 -6 -19 -1 -22 5 -3 11 -20 15 -37 14 -74 88 -129 172 -129 42 0 51 -5 107 -55 l60 -55 120 0 119 0 88 78 88 77 -4 147 c-3 81 -7 156 -10 165 -18 54 -28 73 -58 102 -18 18 -46 36 -62 41 -31 9 120 13 390 10 121 -1 145 -4 190 -24 73 -32 120 -77 156 -148 26 -52 30 -72 30 -139 0 -133 -62 -231 -185 -290 -58 -28 -65 -29 -212 -29 -153 0 -153 0 -133 20 24 24 26 63 5 80 -11 9 -13 16 -5 24 6 6 10 73 10 173 l0 163 -50 0 -50 0 0 -164 c0 -138 2 -165 15 -170 13 -5 12 -9 -5 -26 -26 -26 -25 -46 5 -76 l25 -25 -528 3 -527 3 -54 30 c-228 126 -226 441 4 563 45 24 64 27 190 32 77 4 146 5 153 3 8 -2 113 -3 234 -3z m133 -50 l-29 -30 29 -32 30 -33 -35 32 -34 33 29 30 c16 16 31 30 34 30 2 0 -8 -13 -24 -30z m-28 -302 c-2 -13 -4 -3 -4 22 0 25 2 35 4 23 2 -13 2 -33 0 -45z m218 -48 c-3 -5 -21 -9 -38 -9 l-32 2 35 7 c19 4 36 8 38 9 2 0 0 -3 -3 -9z m125 -33 c0 -2 -15 -16 -32 -33 l-33 -29 29 33 c28 30 36 37 36 29z"/>
 <path d="M1580 1290 c0 -80 -4 -130 -10 -130 -5 0 -10 -16 -10 -36 0 -21 4 -33 10 -29 6 3 10 -4 10 -16 0 -41 47 -106 93 -128 47 -23 116 -27 150 -10 32 17 77 60 93 91 37 71 2 181 -73 224 -39 24 -52 26 -109 21 l-64 -5 0 74 0 74 -45 0 -45 0 0 -130z m232 -128 c46 -47 12 -132 -53 -132 -43 0 -65 15 -78 51 -27 79 72 141 131 81z"/>
 <path d="M444 1266 c-39 -17 -83 -74 -94 -121 -24 -105 62 -215 168 -215 48 0 101 21 128 51 17 19 16 21 -16 54 l-34 35 -21 -20 c-32 -30 -88 -27 -114 6 -29 37 -26 70 8 105 34 34 54 36 97 10 l32 -19 31 32 31 32 -22 21 c-13 11 -33 26 -45 32 -29 15 -111 13 -149 -3z"/>
 </g>
<g id="layer104" fill="#c34e02" stroke="none">
 <path d="M535 1500 c-136 -8 -197 -33 -274 -115 -184 -194 -126 -488 119 -604 l55 -26 705 0 705 0 67 33 c83 40 148 104 185 180 25 51 28 68 28 157 0 83 -4 108 -23 149 -47 103 -137 183 -237 211 -40 11 -170 15 -635 17 -322 2 -634 1 -695 -2z m428 -60 l222 0 -40 -19 c-22 -10 -49 -28 -59 -40 -20 -22 -20 -22 6 -48 l26 -25 32 23 c23 18 45 24 82 24 42 0 53 -4 74 -28 39 -46 32 -56 -30 -50 -70 7 -98 0 -142 -39 -86 -75 -86 -190 -1 -265 84 -74 222 -48 274 50 22 41 30 214 14 275 -15 53 -72 119 -115 131 -33 10 112 14 388 11 121 -1 145 -4 190 -24 73 -32 120 -77 156 -148 40 -81 43 -189 6 -270 -30 -67 -95 -129 -167 -163 l-57 -26 -693 3 -694 3 -54 30 c-228 126 -226 441 4 563 45 24 64 27 190 32 77 4 146 5 153 3 8 -2 113 -3 235 -3z m345 -286 c29 -33 28 -69 -3 -99 -34 -35 -86 -34 -114 1 -36 46 -22 102 30 123 32 13 59 5 87 -25z"/>
 <path d="M1580 1238 c0 -175 1 -183 25 -224 40 -69 153 -107 218 -73 32 17 77 60 93 91 37 71 2 181 -73 224 -39 24 -52 26 -109 21 l-64 -5 0 74 0 74 -45 0 -45 0 0 -182z m232 -76 c46 -47 12 -132 -53 -132 -43 0 -65 15 -78 51 -27 79 72 141 131 81z"/>
 <path d="M444 1266 c-39 -17 -83 -74 -94 -121 -24 -105 62 -215 168 -215 48 0 101 21 128 51 17 19 16 21 -16 54 l-34 35 -21 -20 c-32 -30 -88 -27 -114 6 -29 37 -26 70 8 105 34 34 54 36 97 10 l32 -19 31 32 31 32 -22 21 c-13 11 -33 26 -45 32 -29 15 -111 13 -149 -3z"/>
 <path d="M759 1252 c-32 -21 -50 -41 -63 -73 -10 -24 -22 -52 -27 -61 -5 -10 -5 -19 0 -23 5 -3 12 -19 16 -36 9 -39 61 -98 102 -115 41 -18 95 -18 137 0 36 15 96 81 96 106 0 9 6 25 14 35 11 15 11 22 0 44 -8 14 -14 31 -14 38 0 21 -63 85 -97 99 -54 23 -113 18 -164 -14z"/>
 <path d="M1450 1105 l0 -165 28 0 27 -1 -27 -20 c-30 -22 -38 -65 -16 -87 20 -20 65 -14 82 10 22 31 20 45 -10 73 -26 24 -26 25 -5 25 21 0 21 3 21 165 l0 165 -50 0 -50 0 0 -165z"/>
 </g>
<g id="layer105" fill="#ca8d6a" stroke="none">
 <path d="M535 1500 c-136 -8 -197 -33 -274 -115 -184 -194 -126 -488 119 -604 l55 -26 705 0 705 0 67 33 c83 40 148 104 185 180 25 51 28 68 28 157 0 83 -4 108 -23 149 -47 103 -137 183 -237 211 -40 11 -170 15 -635 17 -322 2 -634 1 -695 -2z m428 -60 l222 0 -40 -19 c-22 -10 -49 -28 -59 -40 -20 -22 -20 -22 6 -48 l26 -25 32 23 c23 18 45 24 82 24 42 0 53 -4 74 -28 39 -46 32 -56 -30 -50 -70 7 -98 0 -142 -39 -86 -75 -86 -190 -1 -265 84 -74 222 -48 274 50 22 41 30 214 14 275 -15 53 -72 119 -115 131 -33 10 112 14 388 11 121 -1 145 -4 190 -24 73 -32 120 -77 156 -148 40 -81 43 -189 6 -270 -30 -67 -95 -129 -167 -163 l-57 -26 -693 3 -694 3 -54 30 c-228 126 -226 441 4 563 45 24 64 27 190 32 77 4 146 5 153 3 8 -2 113 -3 235 -3z m345 -286 c29 -33 28 -69 -3 -99 -34 -35 -86 -34 -114 1 -36 46 -22 102 30 123 32 13 59 5 87 -25z"/>
 <path d="M1580 1238 c0 -175 1 -183 25 -224 40 -69 153 -107 218 -73 32 17 77 60 93 91 37 71 2 181 -73 224 -39 24 -52 26 -109 21 l-64 -5 0 74 0 74 -45 0 -45 0 0 -182z m232 -76 c46 -47 12 -132 -53 -132 -43 0 -65 15 -78 51 -27 79 72 141 131 81z"/>
 <path d="M444 1266 c-39 -17 -83 -74 -94 -121 -24 -105 62 -215 168 -215 48 0 101 21 128 51 17 19 16 21 -16 54 l-34 35 -21 -20 c-32 -30 -88 -27 -114 6 -29 37 -26 70 8 105 34 34 54 36 97 10 l32 -19 31 32 31 32 -22 21 c-13 11 -33 26 -45 32 -29 15 -111 13 -149 -3z"/>
 <path d="M1450 1106 l0 -164 28 -3 c15 -2 37 -3 50 -1 22 3 22 5 22 168 l0 164 -50 0 -50 0 0 -164z"/>
 <path d="M790 1191 c-42 -13 -84 -38 -108 -64 l-23 -25 38 -31 c48 -40 132 -65 185 -57 47 8 126 46 151 74 18 19 17 21 -19 51 -64 52 -155 73 -224 52z m104 -32 c50 -39 25 -119 -36 -119 -42 0 -65 16 -73 49 -8 36 8 69 38 81 33 13 42 12 71 -11z"/>
 </g>
<g id="layer106" fill="#b7a16f" stroke="none">
 <path d="M535 1500 c-136 -8 -197 -33 -274 -115 -184 -194 -126 -488 119 -604 l55 -26 705 0 705 0 67 33 c83 40 148 104 185 180 25 51 28 68 28 157 0 83 -4 108 -23 149 -47 103 -137 183 -237 211 -40 11 -170 15 -635 17 -322 2 -634 1 -695 -2z m428 -60 l222 0 -40 -19 c-22 -10 -49 -28 -59 -40 -20 -22 -20 -22 6 -48 l26 -25 32 23 c23 18 45 24 82 24 42 0 53 -4 74 -28 39 -46 32 -56 -30 -50 -70 7 -98 0 -142 -39 -86 -75 -86 -190 -1 -265 84 -74 222 -48 274 50 22 41 30 214 14 275 -15 53 -72 119 -115 131 -33 10 112 14 388 11 121 -1 145 -4 190 -24 73 -32 120 -77 156 -148 40 -81 43 -189 6 -270 -30 -67 -95 -129 -167 -163 l-57 -26 -693 3 -694 3 -54 30 c-228 126 -226 441 4 563 45 24 64 27 190 32 77 4 146 5 153 3 8 -2 113 -3 235 -3z m345 -286 c29 -33 28 -69 -3 -99 -34 -35 -86 -34 -114 1 -36 46 -22 102 30 123 32 13 59 5 87 -25z"/>
 <path d="M1580 1238 c0 -175 1 -183 25 -224 40 -69 153 -107 218 -73 32 17 77 60 93 91 37 71 2 181 -73 224 -39 24 -52 26 -109 21 l-64 -5 0 74 0 74 -45 0 -45 0 0 -182z m232 -76 c46 -47 12 -132 -53 -132 -43 0 -65 15 -78 51 -27 79 72 141 131 81z"/>
 <path d="M444 1266 c-39 -17 -83 -74 -94 -121 -24 -105 62 -215 168 -215 48 0 101 21 128 51 17 19 16 21 -16 54 l-34 35 -21 -20 c-32 -30 -88 -27 -114 6 -29 37 -26 70 8 105 34 34 54 36 97 10 l32 -19 31 32 31 32 -22 21 c-13 11 -33 26 -45 32 -29 15 -111 13 -149 -3z"/>
 <path d="M1450 1106 l0 -164 28 -3 c15 -2 37 -3 50 -1 22 3 22 5 22 168 l0 164 -50 0 -50 0 0 -164z"/>
 <path d="M802 1189 c-46 -9 -97 -36 -126 -68 -17 -18 -16 -20 16 -45 103 -78 235 -75 332 7 l28 24 -33 26 c-73 54 -139 71 -217 56z m89 -20 c51 -27 43 -107 -12 -130 -81 -33 -137 89 -59 128 31 16 46 16 71 2z"/>
 </g>
<g id="layer107" fill="#dbc6ad" stroke="none">
 <path d="M535 1500 c-136 -8 -197 -33 -274 -115 -184 -194 -126 -488 119 -604 l55 -26 705 0 705 0 67 33 c83 40 148 104 185 180 25 51 28 68 28 157 0 83 -4 108 -23 149 -47 103 -137 183 -237 211 -40 11 -170 15 -635 17 -322 2 -634 1 -695 -2z m1368 -37 c67 -31 148 -112 182 -180 26 -52 29 -69 30 -153 0 -88 -3 -101 -32 -161 -39 -79 -102 -140 -181 -177 l-57 -27 -673 -3 c-744 -3 -747 -3 -844 59 -173 111 -216 358 -90 524 21 28 59 65 86 83 94 63 72 61 836 59 l695 -2 48 -22z"/>
 <path d="M800 1189 c-55 -11 -125 -58 -125 -84 0 -12 18 -30 49 -49 91 -56 225 -45 291 24 33 35 28 44 -42 82 -57 30 -111 39 -173 27z m91 -20 c51 -27 43 -107 -12 -130 -81 -33 -137 89 -59 128 31 16 46 16 71 2z"/>
 </g>

</svg>